<?xml version="1.0" standalone="no"?>
<!DOCTYPE svg PUBLIC "-//W3C//DTD SVG 20010904//EN"
 "http://www.w3.org/TR/2001/REC-SVG-20010904/DTD/svg10.dtd">
<svg version="1.0" xmlns="http://www.w3.org/2000/svg"
 width="700.000000pt" height="700.000000pt" viewBox="0 0 700.000000 700.000000"
 preserveAspectRatio="xMidYMid meet">
<metadata>
Created by potrace 1.11, written by Peter Selinger 2001-2013
</metadata>
<g transform="translate(0.000000,700.000000) scale(0.100000,-0.100000)"
fill="#000000" stroke="none">
<path d="M2595 5745 c-44 -7 -114 -21 -155 -33 -41 -11 -102 -26 -135 -32 -68
-14 -210 -15 -246 -2 -15 6 -33 6 -49 -1 -14 -6 -102 -11 -205 -11 l-180 -1
-60 -32 c-75 -39 -114 -71 -240 -199 -146 -147 -352 -387 -406 -474 -29 -46
-82 -174 -99 -242 -28 -107 -18 -247 34 -491 24 -112 6 -178 -67 -242 -47 -41
-87 -63 -274 -152 -124 -58 -282 -98 -428 -109 -44 -4 -81 -7 -83 -9 -1 -1 2
-14 8 -29 16 -43 101 -76 208 -83 132 -8 386 38 585 106 80 27 89 29 95 13 14
-34 6 -277 -14 -407 -3 -16 -6 -79 -8 -140 -8 -228 61 -405 223 -572 89 -92
174 -151 268 -187 158 -59 311 -74 438 -42 91 22 123 42 200 123 44 47 88 89
98 94 16 9 17 6 13 -48 -3 -32 -6 -121 -7 -197 -1 -76 -6 -162 -11 -190 -4
-28 -10 -76 -14 -106 -3 -30 -8 -57 -9 -60 -14 -24 -22 -310 -11 -383 10 -64
33 -73 141 -53 34 6 136 45 149 58 6 4 18 8 28 8 14 0 102 64 144 104 6 6 26
25 45 41 19 17 58 57 87 89 60 66 65 93 31 163 -17 35 -26 43 -48 43 -60 0
-85 44 -60 107 7 16 12 90 13 173 l1 145 36 55 c50 77 223 250 250 250 13 0
-3 -312 -26 -517 -2 -18 -7 -79 -10 -135 -4 -57 -8 -113 -10 -125 -2 -13 -6
-76 -10 -140 -6 -122 -22 -223 -36 -223 -4 0 -10 -8 -14 -17 -3 -10 -35 -49
-70 -88 -35 -38 -74 -90 -86 -115 -12 -25 -25 -53 -30 -62 -16 -32 -9 -53 29
-79 120 -82 308 -111 517 -79 169 25 218 76 194 205 -20 111 -23 136 -22 210
0 61 8 102 32 173 17 51 34 110 37 130 16 117 40 222 76 337 22 72 46 155 54
185 22 82 51 174 91 280 28 77 45 107 90 155 61 67 68 80 77 148 8 56 15 77
27 77 4 0 32 -14 60 -31 165 -97 366 -180 494 -204 27 -5 120 -6 295 -3 130 2
126 3 139 -49 7 -27 32 -97 56 -158 77 -194 96 -287 97 -474 0 -122 -13 -298
-27 -370 -11 -54 -39 -150 -52 -176 -18 -35 -79 -121 -107 -150 -28 -30 -55
-96 -62 -153 -3 -29 -4 -52 -3 -53 90 -16 369 -20 449 -7 108 18 199 48 219
72 19 22 17 88 -5 169 -19 70 -18 83 15 237 6 25 8 110 6 190 -3 80 -6 262 -7
405 l-2 260 43 88 c24 48 52 92 63 98 11 6 21 9 22 7 2 -2 37 -48 78 -103 103
-137 141 -171 292 -261 72 -43 147 -90 166 -103 116 -82 219 -217 312 -411 56
-117 62 -207 24 -364 -30 -124 -35 -200 -15 -242 14 -28 17 -29 79 -29 81 1
109 8 244 59 93 36 114 48 193 107 80 62 96 77 123 121 37 61 25 110 -47 190
-58 63 -67 85 -88 203 -22 124 -70 213 -224 420 -149 199 -227 314 -241 352
-6 16 -26 60 -45 98 -49 99 -58 172 -55 445 6 687 5 717 -20 840 -71 339 -252
620 -641 997 -208 202 -431 347 -639 416 -93 31 -243 77 -273 83 -12 2 -38 8
-57 12 -34 8 -158 -6 -250 -28 -57 -13 -65 -15 -185 -39 -55 -11 -113 -23
-130 -27 -16 -3 -82 -8 -145 -10 -126 -3 -188 7 -321 56 -229 83 -316 96 -546
76 l-91 -8 -92 46 c-104 54 -159 61 -295 41z m-765 -1555 c28 -7 86 -29 128
-50 43 -20 129 -53 193 -74 64 -20 125 -45 136 -56 12 -10 29 -42 38 -70 25
-76 64 -85 162 -38 52 26 95 19 146 -23 l38 -32 -5 -71 c-5 -75 -24 -155 -46
-196 -7 -14 -45 -74 -85 -135 -39 -60 -89 -144 -109 -185 -21 -41 -42 -79 -46
-85 -4 -5 -31 -57 -60 -115 -29 -58 -61 -116 -70 -130 -10 -14 -37 -61 -60
-105 -23 -44 -47 -85 -52 -92 -5 -7 -19 -31 -31 -54 -25 -50 -39 -54 -96 -28
-34 15 -41 23 -41 47 0 28 -15 52 -35 52 -5 0 -37 -26 -71 -58 -67 -65 -142
-106 -189 -105 -81 3 -243 80 -310 147 -55 55 -108 153 -126 233 -11 49 -11
54 21 119 90 187 110 299 115 637 5 269 10 308 46 361 25 36 114 94 171 111
49 14 168 12 238 -5z"/>
</g>
</svg>
